<svg xmlns="http://www.w3.org/2000/svg" xmlns:xlink="http://www.w3.org/1999/xlink" width="1366" zoomAndPan="magnify" viewBox="0 0 1024.5 576" height="768" preserveAspectRatio="xMidYMid meet" version="1.0"><defs><g/><clipPath id="3e36cd2fd1"><rect x="0" width="994" y="0" height="237"/></clipPath></defs><g transform="matrix(1, 0, 0, 1, 16, 170)"><g clip-path="url(#3e36cd2fd1)"><g fill="#000000" fill-opacity="1"><g transform="translate(1.770386, 179.300046)"><g><path d="M 23.65625 5.609375 C 25.570312 4.398438 27.035156 2.359375 28.046875 -0.515625 C 29.054688 -3.398438 29.765625 -6.738281 30.171875 -10.53125 C 30.578125 -14.320312 30.78125 -18.160156 30.78125 -22.046875 C 30.78125 -25.941406 30.78125 -29.53125 30.78125 -32.8125 C 30.78125 -36.101562 30.828125 -38.65625 30.921875 -40.46875 C 31.628906 -39.0625 32.5625 -36.941406 33.71875 -34.109375 C 34.882812 -31.273438 36.203125 -28.191406 37.671875 -24.859375 C 39.140625 -21.523438 40.707031 -18.289062 42.375 -15.15625 C 44.039062 -12.019531 45.78125 -9.390625 47.59375 -7.265625 C 49.414062 -5.148438 51.238281 -3.890625 53.0625 -3.484375 C 54.476562 -3.179688 55.992188 -4.09375 57.609375 -6.21875 C 59.222656 -8.34375 60.835938 -11.144531 62.453125 -14.625 C 64.066406 -18.113281 65.609375 -21.703125 67.078125 -25.390625 C 68.546875 -29.078125 69.832031 -32.410156 70.9375 -35.390625 C 72.050781 -38.378906 72.960938 -40.425781 73.671875 -41.53125 C 74.078125 -39.613281 74.304688 -37.140625 74.359375 -34.109375 C 74.410156 -31.078125 74.507812 -27.816406 74.65625 -24.328125 C 74.8125 -20.835938 75.164062 -17.476562 75.71875 -14.25 C 76.28125 -11.019531 77.21875 -8.164062 78.53125 -5.6875 C 79.84375 -3.207031 81.660156 -1.460938 83.984375 -0.453125 C 86.410156 0.554688 88.40625 0.203125 89.96875 -1.515625 C 91.539062 -3.234375 92.78125 -5.832031 93.6875 -9.3125 C 94.59375 -12.800781 95.25 -16.691406 95.65625 -20.984375 C 96.0625 -25.285156 96.3125 -29.554688 96.40625 -33.796875 C 96.507812 -38.046875 96.5625 -41.8125 96.5625 -45.09375 C 96.5625 -48.382812 96.5625 -50.632812 96.5625 -51.84375 C 96.769531 -55.175781 97.023438 -58.914062 97.328125 -63.0625 C 97.628906 -67.207031 97.703125 -71.273438 97.546875 -75.265625 C 97.398438 -79.253906 96.664062 -82.765625 95.34375 -85.796875 C 94.03125 -88.828125 91.832031 -90.898438 88.75 -92.015625 C 85.675781 -93.128906 81.359375 -92.878906 75.796875 -91.265625 C 73.265625 -90.554688 70.9375 -88.734375 68.8125 -85.796875 C 66.695312 -82.867188 64.832031 -79.332031 63.21875 -75.1875 C 61.601562 -71.039062 60.113281 -66.769531 58.75 -62.375 C 57.382812 -57.976562 56.171875 -53.882812 55.109375 -50.09375 C 54.046875 -46.3125 53.054688 -43.304688 52.140625 -41.078125 C 49.421875 -46.941406 46.46875 -52.828125 43.28125 -58.734375 C 40.09375 -64.648438 36.679688 -70.285156 33.046875 -75.640625 C 33.046875 -75.941406 32.921875 -76.847656 32.671875 -78.359375 C 32.421875 -79.878906 32.066406 -81.523438 31.609375 -83.296875 C 31.148438 -85.066406 30.519531 -86.359375 29.71875 -87.171875 C 28.5 -88.378906 26.703125 -89.109375 24.328125 -89.359375 C 21.953125 -89.617188 19.523438 -89.546875 17.046875 -89.140625 C 14.578125 -88.734375 12.632812 -88.226562 11.21875 -87.625 C 8.894531 -86.613281 7.226562 -84.390625 6.21875 -80.953125 C 5.207031 -77.515625 4.648438 -73.445312 4.546875 -68.75 C 4.441406 -64.050781 4.566406 -59.222656 4.921875 -54.265625 C 5.273438 -49.316406 5.679688 -44.796875 6.140625 -40.703125 C 6.597656 -36.609375 6.828125 -33.550781 6.828125 -31.53125 C 6.921875 -29.914062 6.890625 -27.59375 6.734375 -24.5625 C 6.585938 -21.53125 6.515625 -18.21875 6.515625 -14.625 C 6.515625 -11.039062 6.742188 -7.578125 7.203125 -4.234375 C 7.660156 -0.898438 8.492188 1.925781 9.703125 4.25 C 10.910156 6.570312 12.625 7.929688 14.84375 8.328125 C 17.070312 8.734375 20.007812 7.828125 23.65625 5.609375 Z M 23.65625 5.609375 "/></g></g></g><g fill="#000000" fill-opacity="1"><g transform="translate(103.936221, 179.300046)"><g><path d="M 56.84375 -7.890625 C 60.582031 -11.523438 63.84375 -16.296875 66.625 -22.203125 C 69.40625 -28.117188 71.523438 -34.460938 72.984375 -41.234375 C 74.453125 -48.003906 75.160156 -54.625 75.109375 -61.09375 C 75.054688 -67.5625 74.070312 -73.222656 72.15625 -78.078125 C 72.15625 -78.878906 71.625 -80.34375 70.5625 -82.46875 C 69.5 -84.59375 67.90625 -86.890625 65.78125 -89.359375 C 63.664062 -91.835938 61.015625 -93.960938 57.828125 -95.734375 C 54.648438 -97.503906 50.960938 -98.460938 46.765625 -98.609375 C 42.566406 -98.765625 37.789062 -97.578125 32.4375 -95.046875 C 26.882812 -92.421875 22.132812 -88.882812 18.1875 -84.4375 C 14.25 -79.988281 11.164062 -74.957031 8.9375 -69.34375 C 6.71875 -63.738281 5.351562 -57.929688 4.84375 -51.921875 C 4.34375 -45.910156 4.695312 -40.023438 5.90625 -34.265625 C 6.914062 -29.910156 8.609375 -25.5625 10.984375 -21.21875 C 13.359375 -16.875 16.265625 -12.957031 19.703125 -9.46875 C 23.140625 -5.988281 26.90625 -3.390625 31 -1.671875 C 35.09375 0.046875 39.335938 0.503906 43.734375 -0.296875 C 48.128906 -1.109375 52.5 -3.640625 56.84375 -7.890625 Z M 35.328125 -16.0625 C 32.390625 -17.28125 30.265625 -19.273438 28.953125 -22.046875 C 27.640625 -24.828125 26.929688 -27.9375 26.828125 -31.375 C 26.734375 -34.8125 26.988281 -38.171875 27.59375 -41.453125 C 28.195312 -44.742188 28.953125 -47.5 29.859375 -49.71875 C 30.566406 -51.644531 31.578125 -53.796875 32.890625 -56.171875 C 34.203125 -58.546875 35.769531 -60.71875 37.59375 -62.6875 C 39.414062 -64.65625 41.4375 -65.96875 43.65625 -66.625 C 45.882812 -67.28125 48.257812 -66.851562 50.78125 -65.34375 C 53.3125 -63.925781 55.03125 -61.597656 55.9375 -58.359375 C 56.84375 -55.128906 57.144531 -51.441406 56.84375 -47.296875 C 56.539062 -43.148438 55.757812 -39.003906 54.5 -34.859375 C 53.238281 -30.722656 51.617188 -27.035156 49.640625 -23.796875 C 47.671875 -20.566406 45.445312 -18.191406 42.96875 -16.671875 C 40.5 -15.160156 37.953125 -14.957031 35.328125 -16.0625 Z M 35.328125 -16.0625 "/></g></g></g><g fill="#000000" fill-opacity="1"><g transform="translate(183.516437, 179.300046)"><g><path d="M 12.578125 -5.90625 C 16.421875 -3.789062 20.941406 -2.203125 26.140625 -1.140625 C 31.347656 -0.078125 36.65625 0.273438 42.0625 -0.078125 C 47.46875 -0.429688 52.492188 -1.617188 57.140625 -3.640625 C 61.796875 -5.660156 65.488281 -8.640625 68.21875 -12.578125 C 71.25 -16.921875 72.4375 -20.835938 71.78125 -24.328125 C 71.125 -27.816406 69.328125 -30.972656 66.390625 -33.796875 C 63.460938 -36.628906 60.003906 -39.179688 56.015625 -41.453125 C 52.023438 -43.734375 48.054688 -45.78125 44.109375 -47.59375 C 40.171875 -49.414062 36.9375 -51.132812 34.40625 -52.75 C 31.582031 -54.570312 29.613281 -56.847656 28.5 -59.578125 C 27.382812 -62.304688 27.40625 -64.859375 28.5625 -67.234375 C 29.726562 -69.609375 32.285156 -71.148438 36.234375 -71.859375 C 38.453125 -72.265625 40.296875 -71.882812 41.765625 -70.71875 C 43.234375 -69.550781 44.445312 -68.082031 45.40625 -66.3125 C 46.363281 -64.550781 47.195312 -62.835938 47.90625 -61.171875 C 48.613281 -59.503906 49.269531 -58.265625 49.875 -57.453125 C 51.082031 -55.023438 52.847656 -53.484375 55.171875 -52.828125 C 57.503906 -52.171875 59.957031 -52.242188 62.53125 -53.046875 C 65.101562 -53.859375 67.347656 -55.222656 69.265625 -57.140625 C 71.191406 -59.066406 72.457031 -61.421875 73.0625 -64.203125 C 73.675781 -66.984375 73.171875 -70.039062 71.546875 -73.375 C 68.421875 -79.84375 64.023438 -84.992188 58.359375 -88.828125 C 52.703125 -92.671875 46.488281 -94.84375 39.71875 -95.34375 C 32.945312 -95.851562 26.273438 -94.289062 19.703125 -90.65625 C 14.546875 -87.820312 10.753906 -84.253906 8.328125 -79.953125 C 5.910156 -75.660156 4.773438 -71.164062 4.921875 -66.46875 C 5.078125 -61.769531 6.414062 -57.296875 8.9375 -53.046875 C 11.46875 -48.804688 15.109375 -45.320312 19.859375 -42.59375 C 23.492188 -40.476562 27.40625 -38.429688 31.59375 -36.453125 C 35.789062 -34.484375 39.253906 -31.832031 41.984375 -28.5 C 44.003906 -25.96875 44.863281 -23.515625 44.5625 -21.140625 C 44.257812 -18.765625 43.097656 -17.019531 41.078125 -15.90625 C 39.054688 -14.800781 36.476562 -14.804688 33.34375 -15.921875 C 31.53125 -16.628906 29.613281 -17.765625 27.59375 -19.328125 C 25.570312 -20.890625 23.472656 -22.40625 21.296875 -23.875 C 19.128906 -25.34375 16.957031 -26.300781 14.78125 -26.75 C 12.601562 -27.207031 10.457031 -26.578125 8.34375 -24.859375 C 5.8125 -22.835938 4.546875 -20.585938 4.546875 -18.109375 C 4.546875 -15.640625 5.328125 -13.316406 6.890625 -11.140625 C 8.460938 -8.972656 10.359375 -7.226562 12.578125 -5.90625 Z M 12.578125 -5.90625 "/></g></g></g><g fill="#000000" fill-opacity="1"><g transform="translate(261.277679, 179.300046)"><g><path d="M 8.9375 -4.09375 C 10.351562 -2.375 12.78125 -1.210938 16.21875 -0.609375 C 19.65625 -0.00390625 23.546875 0.144531 27.890625 -0.15625 C 32.234375 -0.457031 36.578125 -1.113281 40.921875 -2.125 C 45.273438 -3.132812 49.09375 -4.367188 52.375 -5.828125 C 55.65625 -7.296875 57.90625 -8.835938 59.125 -10.453125 C 61.945312 -14.296875 63.4375 -17.429688 63.59375 -19.859375 C 63.75 -22.285156 62.941406 -24.128906 61.171875 -25.390625 C 59.398438 -26.648438 57.070312 -27.507812 54.1875 -27.96875 C 51.3125 -28.425781 48.207031 -28.628906 44.875 -28.578125 C 41.539062 -28.523438 38.378906 -28.394531 35.390625 -28.1875 C 32.410156 -27.988281 29.960938 -27.835938 28.046875 -27.734375 C 26.523438 -27.941406 25.613281 -28.597656 25.3125 -29.703125 C 25.007812 -30.816406 25.082031 -32.128906 25.53125 -33.640625 C 25.988281 -35.160156 26.644531 -36.601562 27.5 -37.96875 C 28.363281 -39.332031 29.203125 -40.320312 30.015625 -40.9375 C 32.234375 -42.75 34.757812 -43.957031 37.59375 -44.5625 C 40.425781 -45.175781 43.226562 -45.8125 46 -46.46875 C 48.78125 -47.125 51.179688 -48.460938 53.203125 -50.484375 C 55.835938 -53.109375 56.976562 -55.101562 56.625 -56.46875 C 56.269531 -57.832031 54.953125 -58.816406 52.671875 -59.421875 C 50.398438 -60.023438 47.75 -60.476562 44.71875 -60.78125 C 41.6875 -61.09375 38.78125 -61.5 36 -62 C 33.21875 -62.507812 31.117188 -63.316406 29.703125 -64.421875 C 28.296875 -65.535156 28.097656 -67.253906 29.109375 -69.578125 C 30.015625 -71.503906 31.753906 -72.945312 34.328125 -73.90625 C 36.910156 -74.863281 39.789062 -75.671875 42.96875 -76.328125 C 46.15625 -76.984375 49.160156 -77.765625 51.984375 -78.671875 C 54.816406 -79.585938 56.992188 -80.925781 58.515625 -82.6875 C 60.035156 -84.457031 60.335938 -87.007812 59.421875 -90.34375 C 59.015625 -92.0625 57.695312 -93.347656 55.46875 -94.203125 C 53.25 -95.066406 50.570312 -95.648438 47.4375 -95.953125 C 44.3125 -96.253906 41.101562 -96.378906 37.8125 -96.328125 C 34.53125 -96.285156 31.578125 -96.160156 28.953125 -95.953125 C 26.328125 -95.753906 24.40625 -95.601562 23.1875 -95.5 C 19.957031 -95.40625 17.078125 -95.128906 14.546875 -94.671875 C 12.023438 -94.210938 10.054688 -93.125 8.640625 -91.40625 C 7.222656 -89.6875 6.515625 -86.957031 6.515625 -83.21875 C 6.410156 -77.5625 6.28125 -71.898438 6.125 -66.234375 C 5.976562 -60.578125 5.859375 -54.921875 5.765625 -49.265625 C 5.765625 -46.640625 5.585938 -43.253906 5.234375 -39.109375 C 4.878906 -34.960938 4.648438 -30.640625 4.546875 -26.140625 C 4.441406 -21.648438 4.691406 -17.429688 5.296875 -13.484375 C 5.910156 -9.546875 7.125 -6.414062 8.9375 -4.09375 Z M 8.9375 -4.09375 "/></g></g></g><g fill="#000000" fill-opacity="1"><g transform="translate(329.337715, 179.300046)"><g><path d="M 12.578125 -5.90625 C 16.421875 -3.789062 20.941406 -2.203125 26.140625 -1.140625 C 31.347656 -0.078125 36.65625 0.273438 42.0625 -0.078125 C 47.46875 -0.429688 52.492188 -1.617188 57.140625 -3.640625 C 61.796875 -5.660156 65.488281 -8.640625 68.21875 -12.578125 C 71.25 -16.921875 72.4375 -20.835938 71.78125 -24.328125 C 71.125 -27.816406 69.328125 -30.972656 66.390625 -33.796875 C 63.460938 -36.628906 60.003906 -39.179688 56.015625 -41.453125 C 52.023438 -43.734375 48.054688 -45.78125 44.109375 -47.59375 C 40.171875 -49.414062 36.9375 -51.132812 34.40625 -52.75 C 31.582031 -54.570312 29.613281 -56.847656 28.5 -59.578125 C 27.382812 -62.304688 27.40625 -64.859375 28.5625 -67.234375 C 29.726562 -69.609375 32.285156 -71.148438 36.234375 -71.859375 C 38.453125 -72.265625 40.296875 -71.882812 41.765625 -70.71875 C 43.234375 -69.550781 44.445312 -68.082031 45.40625 -66.3125 C 46.363281 -64.550781 47.195312 -62.835938 47.90625 -61.171875 C 48.613281 -59.503906 49.269531 -58.265625 49.875 -57.453125 C 51.082031 -55.023438 52.847656 -53.484375 55.171875 -52.828125 C 57.503906 -52.171875 59.957031 -52.242188 62.53125 -53.046875 C 65.101562 -53.859375 67.347656 -55.222656 69.265625 -57.140625 C 71.191406 -59.066406 72.457031 -61.421875 73.0625 -64.203125 C 73.675781 -66.984375 73.171875 -70.039062 71.546875 -73.375 C 68.421875 -79.84375 64.023438 -84.992188 58.359375 -88.828125 C 52.703125 -92.671875 46.488281 -94.84375 39.71875 -95.34375 C 32.945312 -95.851562 26.273438 -94.289062 19.703125 -90.65625 C 14.546875 -87.820312 10.753906 -84.253906 8.328125 -79.953125 C 5.910156 -75.660156 4.773438 -71.164062 4.921875 -66.46875 C 5.078125 -61.769531 6.414062 -57.296875 8.9375 -53.046875 C 11.46875 -48.804688 15.109375 -45.320312 19.859375 -42.59375 C 23.492188 -40.476562 27.40625 -38.429688 31.59375 -36.453125 C 35.789062 -34.484375 39.253906 -31.832031 41.984375 -28.5 C 44.003906 -25.96875 44.863281 -23.515625 44.5625 -21.140625 C 44.257812 -18.765625 43.097656 -17.019531 41.078125 -15.90625 C 39.054688 -14.800781 36.476562 -14.804688 33.34375 -15.921875 C 31.53125 -16.628906 29.613281 -17.765625 27.59375 -19.328125 C 25.570312 -20.890625 23.472656 -22.40625 21.296875 -23.875 C 19.128906 -25.34375 16.957031 -26.300781 14.78125 -26.75 C 12.601562 -27.207031 10.457031 -26.578125 8.34375 -24.859375 C 5.8125 -22.835938 4.546875 -20.585938 4.546875 -18.109375 C 4.546875 -15.640625 5.328125 -13.316406 6.890625 -11.140625 C 8.460938 -8.972656 10.359375 -7.226562 12.578125 -5.90625 Z M 12.578125 -5.90625 "/></g></g></g><g fill="#000000" fill-opacity="1"><g transform="translate(407.098956, 179.300046)"><g><path d="M 38.046875 -36.984375 C 40.472656 -36.679688 42.945312 -36.53125 45.46875 -36.53125 C 48 -36.53125 50.273438 -36.859375 52.296875 -37.515625 C 54.316406 -38.171875 55.882812 -39.410156 57 -41.234375 C 58.113281 -43.054688 58.46875 -45.632812 58.0625 -48.96875 C 57.757812 -51.488281 56.597656 -53.378906 54.578125 -54.640625 C 52.554688 -55.910156 50.050781 -56.742188 47.0625 -57.140625 C 44.082031 -57.546875 40.953125 -57.671875 37.671875 -57.515625 C 34.390625 -57.367188 31.332031 -57.144531 28.5 -56.84375 C 25.664062 -56.539062 23.441406 -56.335938 21.828125 -56.234375 C 20.003906 -56.140625 18.03125 -56.015625 15.90625 -55.859375 C 13.789062 -55.710938 11.796875 -55.257812 9.921875 -54.5 C 8.054688 -53.738281 6.671875 -52.347656 5.765625 -50.328125 C 5.253906 -49.210938 4.894531 -47.875 4.6875 -46.3125 C 4.488281 -44.75 4.691406 -43.382812 5.296875 -42.21875 C 5.910156 -41.050781 7.125 -40.570312 8.9375 -40.78125 C 11.269531 -39.5625 14.203125 -38.75 17.734375 -38.34375 C 21.273438 -37.945312 24.863281 -37.695312 28.5 -37.59375 C 32.132812 -37.488281 35.316406 -37.285156 38.046875 -36.984375 Z M 38.046875 -36.984375 "/></g></g></g><g fill="#000000" fill-opacity="1"><g transform="translate(469.85363, 179.300046)"><g><path d="M 23.65625 5.609375 C 25.570312 4.398438 27.035156 2.359375 28.046875 -0.515625 C 29.054688 -3.398438 29.765625 -6.738281 30.171875 -10.53125 C 30.578125 -14.320312 30.78125 -18.160156 30.78125 -22.046875 C 30.78125 -25.941406 30.78125 -29.53125 30.78125 -32.8125 C 30.78125 -36.101562 30.828125 -38.65625 30.921875 -40.46875 C 31.628906 -39.0625 32.5625 -36.941406 33.71875 -34.109375 C 34.882812 -31.273438 36.203125 -28.191406 37.671875 -24.859375 C 39.140625 -21.523438 40.707031 -18.289062 42.375 -15.15625 C 44.039062 -12.019531 45.78125 -9.390625 47.59375 -7.265625 C 49.414062 -5.148438 51.238281 -3.890625 53.0625 -3.484375 C 54.476562 -3.179688 55.992188 -4.09375 57.609375 -6.21875 C 59.222656 -8.34375 60.835938 -11.144531 62.453125 -14.625 C 64.066406 -18.113281 65.609375 -21.703125 67.078125 -25.390625 C 68.546875 -29.078125 69.832031 -32.410156 70.9375 -35.390625 C 72.050781 -38.378906 72.960938 -40.425781 73.671875 -41.53125 C 74.078125 -39.613281 74.304688 -37.140625 74.359375 -34.109375 C 74.410156 -31.078125 74.507812 -27.816406 74.65625 -24.328125 C 74.8125 -20.835938 75.164062 -17.476562 75.71875 -14.25 C 76.28125 -11.019531 77.21875 -8.164062 78.53125 -5.6875 C 79.84375 -3.207031 81.660156 -1.460938 83.984375 -0.453125 C 86.410156 0.554688 88.40625 0.203125 89.96875 -1.515625 C 91.539062 -3.234375 92.78125 -5.832031 93.6875 -9.3125 C 94.59375 -12.800781 95.25 -16.691406 95.65625 -20.984375 C 96.0625 -25.285156 96.3125 -29.554688 96.40625 -33.796875 C 96.507812 -38.046875 96.5625 -41.8125 96.5625 -45.09375 C 96.5625 -48.382812 96.5625 -50.632812 96.5625 -51.84375 C 96.769531 -55.175781 97.023438 -58.914062 97.328125 -63.0625 C 97.628906 -67.207031 97.703125 -71.273438 97.546875 -75.265625 C 97.398438 -79.253906 96.664062 -82.765625 95.34375 -85.796875 C 94.03125 -88.828125 91.832031 -90.898438 88.75 -92.015625 C 85.675781 -93.128906 81.359375 -92.878906 75.796875 -91.265625 C 73.265625 -90.554688 70.9375 -88.734375 68.8125 -85.796875 C 66.695312 -82.867188 64.832031 -79.332031 63.21875 -75.1875 C 61.601562 -71.039062 60.113281 -66.769531 58.75 -62.375 C 57.382812 -57.976562 56.171875 -53.882812 55.109375 -50.09375 C 54.046875 -46.3125 53.054688 -43.304688 52.140625 -41.078125 C 49.421875 -46.941406 46.46875 -52.828125 43.28125 -58.734375 C 40.09375 -64.648438 36.679688 -70.285156 33.046875 -75.640625 C 33.046875 -75.941406 32.921875 -76.847656 32.671875 -78.359375 C 32.421875 -79.878906 32.066406 -81.523438 31.609375 -83.296875 C 31.148438 -85.066406 30.519531 -86.359375 29.71875 -87.171875 C 28.5 -88.378906 26.703125 -89.109375 24.328125 -89.359375 C 21.953125 -89.617188 19.523438 -89.546875 17.046875 -89.140625 C 14.578125 -88.734375 12.632812 -88.226562 11.21875 -87.625 C 8.894531 -86.613281 7.226562 -84.390625 6.21875 -80.953125 C 5.207031 -77.515625 4.648438 -73.445312 4.546875 -68.75 C 4.441406 -64.050781 4.566406 -59.222656 4.921875 -54.265625 C 5.273438 -49.316406 5.679688 -44.796875 6.140625 -40.703125 C 6.597656 -36.609375 6.828125 -33.550781 6.828125 -31.53125 C 6.921875 -29.914062 6.890625 -27.59375 6.734375 -24.5625 C 6.585938 -21.53125 6.515625 -18.21875 6.515625 -14.625 C 6.515625 -11.039062 6.742188 -7.578125 7.203125 -4.234375 C 7.660156 -0.898438 8.492188 1.925781 9.703125 4.25 C 10.910156 6.570312 12.625 7.929688 14.84375 8.328125 C 17.070312 8.734375 20.007812 7.828125 23.65625 5.609375 Z M 23.65625 5.609375 "/></g></g></g><g fill="#000000" fill-opacity="1"><g transform="translate(572.019432, 179.300046)"><g><path d="M 0.609375 1.21875 C 1.722656 4.644531 3.007812 6.613281 4.46875 7.125 C 5.9375 7.632812 7.476562 7.207031 9.09375 5.84375 C 10.707031 4.476562 12.25 2.707031 13.71875 0.53125 C 15.1875 -1.644531 16.445312 -3.765625 17.5 -5.828125 C 18.5625 -7.898438 19.296875 -9.394531 19.703125 -10.3125 C 20.410156 -12.03125 22.050781 -13.289062 24.625 -14.09375 C 27.207031 -14.90625 30.113281 -15.3125 33.34375 -15.3125 C 36.582031 -15.3125 39.613281 -15.03125 42.4375 -14.46875 C 45.269531 -13.914062 47.34375 -13.1875 48.65625 -12.28125 C 49.664062 -11.570312 50.773438 -10.382812 51.984375 -8.71875 C 53.203125 -7.050781 54.492188 -5.382812 55.859375 -3.71875 C 57.222656 -2.050781 58.585938 -0.8125 59.953125 0 C 61.316406 0.8125 62.65625 0.765625 63.96875 -0.140625 C 65.28125 -1.054688 66.492188 -3.285156 67.609375 -6.828125 C 68.316406 -8.941406 68.539062 -12.273438 68.28125 -16.828125 C 68.03125 -21.378906 67.398438 -26.632812 66.390625 -32.59375 C 65.378906 -38.550781 64.09375 -44.640625 62.53125 -50.859375 C 60.96875 -57.078125 59.195312 -62.960938 57.21875 -68.515625 C 55.25 -74.078125 53.175781 -78.773438 51 -82.609375 C 48.832031 -86.453125 46.640625 -88.878906 44.421875 -89.890625 C 42.191406 -90.804688 39.914062 -90.273438 37.59375 -88.296875 C 35.269531 -86.328125 32.945312 -83.445312 30.625 -79.65625 C 28.300781 -75.875 26.101562 -71.679688 24.03125 -67.078125 C 21.957031 -62.484375 20.035156 -57.9375 18.265625 -53.4375 C 16.492188 -48.9375 15.023438 -45.019531 13.859375 -41.6875 C 12.703125 -38.351562 11.875 -36.128906 11.375 -35.015625 C 10.457031 -32.796875 9.265625 -30.144531 7.796875 -27.0625 C 6.335938 -23.976562 4.898438 -20.71875 3.484375 -17.28125 C 2.066406 -13.84375 1.03125 -10.503906 0.375 -7.265625 C -0.28125 -4.035156 -0.203125 -1.207031 0.609375 1.21875 Z M 33.046875 -31.53125 C 30.316406 -31.425781 28.800781 -32.054688 28.5 -33.421875 C 28.195312 -34.785156 28.597656 -36.476562 29.703125 -38.5 C 30.816406 -40.519531 32.128906 -42.460938 33.640625 -44.328125 C 35.160156 -46.203125 36.378906 -47.546875 37.296875 -48.359375 C 37.597656 -48.054688 38.125 -47.320312 38.875 -46.15625 C 39.632812 -45 40.316406 -43.632812 40.921875 -42.0625 C 41.535156 -40.5 41.789062 -38.929688 41.6875 -37.359375 C 41.582031 -35.796875 40.898438 -34.484375 39.640625 -33.421875 C 38.378906 -32.359375 36.179688 -31.726562 33.046875 -31.53125 Z M 33.046875 -31.53125 "/></g></g></g><g fill="#000000" fill-opacity="1"><g transform="translate(644.930087, 179.300046)"><g><path d="M 19.09375 -0.453125 C 21.925781 -1.160156 23.898438 -2.578125 25.015625 -4.703125 C 26.128906 -6.828125 26.835938 -9.25 27.140625 -11.96875 C 27.441406 -14.695312 27.640625 -17.175781 27.734375 -19.40625 C 27.941406 -21.832031 28.597656 -23.953125 29.703125 -25.765625 C 30.816406 -27.585938 32.179688 -28.546875 33.796875 -28.640625 C 35.421875 -28.742188 36.988281 -27.332031 38.5 -24.40625 C 40.125 -21.269531 41.945312 -18.257812 43.96875 -15.375 C 45.988281 -12.5 48.257812 -9.847656 50.78125 -7.421875 C 54.726562 -3.679688 58.113281 -1.734375 60.9375 -1.578125 C 63.769531 -1.429688 65.914062 -2.492188 67.375 -4.765625 C 68.84375 -7.046875 69.472656 -9.953125 69.265625 -13.484375 C 69.066406 -17.023438 67.910156 -20.613281 65.796875 -24.25 C 65.285156 -25.257812 64.445312 -26.5 63.28125 -27.96875 C 62.125 -29.4375 61.015625 -30.953125 59.953125 -32.515625 C 58.890625 -34.078125 58.207031 -35.566406 57.90625 -36.984375 C 57.601562 -38.398438 57.957031 -39.5625 58.96875 -40.46875 C 61.289062 -42.394531 63.3125 -44.546875 65.03125 -46.921875 C 66.75 -49.296875 68.21875 -51.796875 69.4375 -54.421875 C 72.769531 -61.703125 73.90625 -68.046875 72.84375 -73.453125 C 71.78125 -78.859375 69.226562 -83.351562 65.1875 -86.9375 C 61.144531 -90.53125 56.191406 -93.257812 50.328125 -95.125 C 44.460938 -96.988281 38.320312 -98 31.90625 -98.15625 C 25.488281 -98.3125 19.398438 -97.628906 13.640625 -96.109375 C 13.140625 -96.003906 13.085938 -95.953125 13.484375 -95.953125 C 10.453125 -95.453125 8.28125 -93.910156 6.96875 -91.328125 C 5.65625 -88.753906 4.921875 -85.671875 4.765625 -82.078125 C 4.617188 -78.492188 4.671875 -74.957031 4.921875 -71.46875 C 5.179688 -67.988281 5.359375 -65.085938 5.453125 -62.765625 C 5.753906 -53.765625 5.804688 -44.765625 5.609375 -35.765625 C 5.410156 -26.773438 5.660156 -17.832031 6.359375 -8.9375 C 6.566406 -5.195312 7.882812 -2.644531 10.3125 -1.28125 C 12.738281 0.0820312 15.664062 0.359375 19.09375 -0.453125 Z M 29.40625 -41.078125 C 29.507812 -42.296875 29.5625 -44.269531 29.5625 -47 C 29.5625 -49.726562 29.660156 -52.554688 29.859375 -55.484375 C 30.066406 -58.410156 30.5 -60.9375 31.15625 -63.0625 C 31.8125 -65.1875 32.796875 -66.296875 34.109375 -66.390625 C 36.429688 -66.597656 39.003906 -66.828125 41.828125 -67.078125 C 44.660156 -67.328125 47.039062 -66.644531 48.96875 -65.03125 C 50.882812 -63.414062 51.613281 -61.625 51.15625 -59.65625 C 50.707031 -57.6875 49.546875 -55.6875 47.671875 -53.65625 C 45.804688 -51.632812 43.632812 -49.738281 41.15625 -47.96875 C 38.675781 -46.207031 36.328125 -44.71875 34.109375 -43.5 C 31.890625 -42.289062 30.320312 -41.484375 29.40625 -41.078125 Z M 29.40625 -41.078125 "/></g></g></g><g fill="#000000" fill-opacity="1"><g transform="translate(722.539738, 179.300046)"><g><path d="M 43.046875 -2.125 C 45.378906 -3.539062 47.097656 -5.785156 48.203125 -8.859375 C 49.316406 -11.941406 50.078125 -15.40625 50.484375 -19.25 C 50.890625 -23.09375 51.113281 -26.804688 51.15625 -30.390625 C 51.207031 -33.984375 51.335938 -36.890625 51.546875 -39.109375 C 51.847656 -42.742188 52.148438 -46.40625 52.453125 -50.09375 C 52.753906 -53.789062 52.957031 -57.457031 53.0625 -61.09375 C 53.257812 -64.019531 53.484375 -65.960938 53.734375 -66.921875 C 53.992188 -67.890625 54.648438 -68.5 55.703125 -68.75 C 56.765625 -69 58.507812 -69.425781 60.9375 -70.03125 C 63.0625 -70.539062 65.207031 -71.578125 67.375 -73.140625 C 69.550781 -74.710938 71.445312 -76.554688 73.0625 -78.671875 C 74.6875 -80.796875 75.722656 -82.894531 76.171875 -84.96875 C 76.628906 -87.039062 76.222656 -88.882812 74.953125 -90.5 C 73.691406 -92.113281 71.296875 -93.226562 67.765625 -93.84375 C 61.296875 -94.945312 54.648438 -95.5 47.828125 -95.5 C 41.003906 -95.5 34.359375 -95.550781 27.890625 -95.65625 C 23.953125 -95.757812 20.210938 -95.554688 16.671875 -95.046875 C 13.140625 -94.546875 10.285156 -93.234375 8.109375 -91.109375 C 5.929688 -88.984375 4.742188 -85.546875 4.546875 -80.796875 C 4.347656 -76.648438 4.929688 -73.414062 6.296875 -71.09375 C 7.660156 -68.769531 9.328125 -67.101562 11.296875 -66.09375 C 13.265625 -65.082031 15.257812 -64.5 17.28125 -64.34375 C 19.300781 -64.195312 20.941406 -64.25 22.203125 -64.5 C 23.472656 -64.75 24.003906 -64.875 23.796875 -64.875 C 25.210938 -65.082031 26.144531 -64.328125 26.59375 -62.609375 C 27.050781 -60.890625 27.253906 -58.765625 27.203125 -56.234375 C 27.160156 -53.710938 27.007812 -51.210938 26.75 -48.734375 C 26.5 -46.253906 26.375 -44.410156 26.375 -43.203125 C 26.269531 -39.359375 26.242188 -35.488281 26.296875 -31.59375 C 26.347656 -27.707031 26.523438 -23.847656 26.828125 -20.015625 C 26.929688 -17.785156 27.207031 -15.226562 27.65625 -12.34375 C 28.113281 -9.46875 28.898438 -6.894531 30.015625 -4.625 C 31.128906 -2.351562 32.71875 -0.863281 34.78125 -0.15625 C 36.851562 0.550781 39.609375 -0.101562 43.046875 -2.125 Z M 43.046875 -2.125 "/></g></g></g><g fill="#000000" fill-opacity="1"><g transform="translate(798.78516, 179.300046)"><g><path d="M 7.28125 -3.796875 C 7.988281 -2.078125 9.175781 -0.960938 10.84375 -0.453125 C 12.507812 0.046875 14.328125 0.117188 16.296875 -0.234375 C 18.265625 -0.585938 20.054688 -1.242188 21.671875 -2.203125 C 23.296875 -3.160156 24.410156 -4.242188 25.015625 -5.453125 C 26.523438 -8.484375 27.457031 -11.742188 27.8125 -15.234375 C 28.164062 -18.722656 28.367188 -22.285156 28.421875 -25.921875 C 28.472656 -29.554688 28.597656 -32.941406 28.796875 -36.078125 C 28.898438 -37.691406 29.226562 -40.164062 29.78125 -43.5 C 30.34375 -46.84375 30.898438 -50.6875 31.453125 -55.03125 C 32.015625 -59.375 32.46875 -63.816406 32.8125 -68.359375 C 33.164062 -72.910156 33.21875 -77.207031 32.96875 -81.25 C 32.71875 -85.289062 32.007812 -88.703125 30.84375 -91.484375 C 29.6875 -94.265625 27.894531 -95.957031 25.46875 -96.5625 C 20.113281 -98.082031 15.941406 -98.132812 12.953125 -96.71875 C 9.972656 -95.300781 7.875 -92.945312 6.65625 -89.65625 C 5.445312 -86.375 4.789062 -82.632812 4.6875 -78.4375 C 4.59375 -74.25 4.695312 -70.054688 5 -65.859375 C 5.300781 -61.671875 5.503906 -58.007812 5.609375 -54.875 C 5.710938 -51.132812 5.632812 -46.960938 5.375 -42.359375 C 5.125 -37.765625 4.921875 -33.066406 4.765625 -28.265625 C 4.617188 -23.472656 4.695312 -18.953125 5 -14.703125 C 5.300781 -10.460938 6.0625 -6.828125 7.28125 -3.796875 Z M 7.28125 -3.796875 "/></g></g></g><g fill="#000000" fill-opacity="1"><g transform="translate(833.345732, 179.300046)"><g><path d="M 11.828125 -0.453125 C 16.066406 0.554688 19.375 0.101562 21.75 -1.8125 C 24.125 -3.738281 25.84375 -6.519531 26.90625 -10.15625 C 27.96875 -13.789062 28.648438 -17.78125 28.953125 -22.125 C 29.253906 -26.476562 29.40625 -30.625 29.40625 -34.5625 C 29.40625 -38.5 29.507812 -41.679688 29.71875 -44.109375 C 30.625 -42.492188 31.707031 -40.195312 32.96875 -37.21875 C 34.226562 -34.238281 35.71875 -31.003906 37.4375 -27.515625 C 39.15625 -24.023438 41.101562 -20.660156 43.28125 -17.421875 C 45.457031 -14.191406 47.90625 -11.460938 50.625 -9.234375 C 53.351562 -7.015625 56.359375 -5.648438 59.640625 -5.140625 C 62.929688 -4.640625 66.5 -5.398438 70.34375 -7.421875 C 72.664062 -8.640625 74.378906 -10.765625 75.484375 -13.796875 C 76.597656 -16.828125 77.28125 -20.285156 77.53125 -24.171875 C 77.789062 -28.066406 77.789062 -32.0625 77.53125 -36.15625 C 77.28125 -40.25 77.003906 -44.035156 76.703125 -47.515625 C 76.398438 -51.003906 76.25 -53.757812 76.25 -55.78125 C 76.25 -57.09375 76.320312 -59.34375 76.46875 -62.53125 C 76.625 -65.71875 76.703125 -69.226562 76.703125 -73.0625 C 76.703125 -76.90625 76.445312 -80.617188 75.9375 -84.203125 C 75.4375 -87.796875 74.53125 -90.726562 73.21875 -93 C 71.90625 -95.269531 70.035156 -96.359375 67.609375 -96.265625 C 64.078125 -96.160156 61.296875 -94.867188 59.265625 -92.390625 C 57.242188 -89.921875 55.753906 -86.816406 54.796875 -83.078125 C 53.835938 -79.335938 53.179688 -75.394531 52.828125 -71.25 C 52.472656 -67.101562 52.269531 -63.132812 52.21875 -59.34375 C 52.164062 -55.5625 51.988281 -52.503906 51.6875 -50.171875 C 48.15625 -55.023438 44.894531 -60.078125 41.90625 -65.328125 C 38.925781 -70.585938 35.671875 -75.691406 32.140625 -80.640625 C 32.140625 -83.679688 31.832031 -86.4375 31.21875 -88.90625 C 30.613281 -91.382812 29.453125 -93.332031 27.734375 -94.75 C 26.023438 -96.164062 23.453125 -96.769531 20.015625 -96.5625 C 17.078125 -96.363281 14.492188 -95.957031 12.265625 -95.34375 C 10.046875 -94.738281 8.332031 -93.628906 7.125 -92.015625 C 5.914062 -90.398438 5.3125 -87.875 5.3125 -84.4375 C 5.207031 -78.976562 5.226562 -73.492188 5.375 -67.984375 C 5.53125 -62.484375 5.660156 -57.003906 5.765625 -51.546875 C 5.859375 -50.023438 5.753906 -47.394531 5.453125 -43.65625 C 5.148438 -39.914062 4.894531 -35.722656 4.6875 -31.078125 C 4.488281 -26.429688 4.515625 -21.859375 4.765625 -17.359375 C 5.023438 -12.859375 5.6875 -9.039062 6.75 -5.90625 C 7.8125 -2.78125 9.503906 -0.960938 11.828125 -0.453125 Z M 11.828125 -0.453125 "/></g></g></g><g fill="#000000" fill-opacity="1"><g transform="translate(915.654379, 179.300046)"><g><path d="M 12.578125 -5.90625 C 16.421875 -3.789062 20.941406 -2.203125 26.140625 -1.140625 C 31.347656 -0.078125 36.65625 0.273438 42.0625 -0.078125 C 47.46875 -0.429688 52.492188 -1.617188 57.140625 -3.640625 C 61.796875 -5.660156 65.488281 -8.640625 68.21875 -12.578125 C 71.25 -16.921875 72.4375 -20.835938 71.78125 -24.328125 C 71.125 -27.816406 69.328125 -30.972656 66.390625 -33.796875 C 63.460938 -36.628906 60.003906 -39.179688 56.015625 -41.453125 C 52.023438 -43.734375 48.054688 -45.78125 44.109375 -47.59375 C 40.171875 -49.414062 36.9375 -51.132812 34.40625 -52.75 C 31.582031 -54.570312 29.613281 -56.847656 28.5 -59.578125 C 27.382812 -62.304688 27.40625 -64.859375 28.5625 -67.234375 C 29.726562 -69.609375 32.285156 -71.148438 36.234375 -71.859375 C 38.453125 -72.265625 40.296875 -71.882812 41.765625 -70.71875 C 43.234375 -69.550781 44.445312 -68.082031 45.40625 -66.3125 C 46.363281 -64.550781 47.195312 -62.835938 47.90625 -61.171875 C 48.613281 -59.503906 49.269531 -58.265625 49.875 -57.453125 C 51.082031 -55.023438 52.847656 -53.484375 55.171875 -52.828125 C 57.503906 -52.171875 59.957031 -52.242188 62.53125 -53.046875 C 65.101562 -53.859375 67.347656 -55.222656 69.265625 -57.140625 C 71.191406 -59.066406 72.457031 -61.421875 73.0625 -64.203125 C 73.675781 -66.984375 73.171875 -70.039062 71.546875 -73.375 C 68.421875 -79.84375 64.023438 -84.992188 58.359375 -88.828125 C 52.703125 -92.671875 46.488281 -94.84375 39.71875 -95.34375 C 32.945312 -95.851562 26.273438 -94.289062 19.703125 -90.65625 C 14.546875 -87.820312 10.753906 -84.253906 8.328125 -79.953125 C 5.910156 -75.660156 4.773438 -71.164062 4.921875 -66.46875 C 5.078125 -61.769531 6.414062 -57.296875 8.9375 -53.046875 C 11.46875 -48.804688 15.109375 -45.320312 19.859375 -42.59375 C 23.492188 -40.476562 27.40625 -38.429688 31.59375 -36.453125 C 35.789062 -34.484375 39.253906 -31.832031 41.984375 -28.5 C 44.003906 -25.96875 44.863281 -23.515625 44.5625 -21.140625 C 44.257812 -18.765625 43.097656 -17.019531 41.078125 -15.90625 C 39.054688 -14.800781 36.476562 -14.804688 33.34375 -15.921875 C 31.53125 -16.628906 29.613281 -17.765625 27.59375 -19.328125 C 25.570312 -20.890625 23.472656 -22.40625 21.296875 -23.875 C 19.128906 -25.34375 16.957031 -26.300781 14.78125 -26.75 C 12.601562 -27.207031 10.457031 -26.578125 8.34375 -24.859375 C 5.8125 -22.835938 4.546875 -20.585938 4.546875 -18.109375 C 4.546875 -15.640625 5.328125 -13.316406 6.890625 -11.140625 C 8.460938 -8.972656 10.359375 -7.226562 12.578125 -5.90625 Z M 12.578125 -5.90625 "/></g></g></g></g></g></svg>